<svg xmlns="http://www.w3.org/2000/svg" width="20" height="20" viewBox="0 0 20 20"><g><g><g><g><path fill="#e51535" d="M11.022.528L4.935 6.573H.232v7.104H4.82l6.203 6.16z"/></g><g><path fill="#e51535" d="M13.378 6.617V8.38c.71.292 1.214.99 1.214 1.805s-.503 1.513-1.214 1.806v1.76a3.649 3.649 0 0 0 2.904-3.566 3.65 3.65 0 0 0-2.904-3.567z"/></g><g><path fill="#e51535" d="M13.378 3.21v1.704c2.699.487 4.739 2.638 4.739 5.21 0 2.573-2.04 4.724-4.739 5.212v1.703c3.635-.518 6.429-3.417 6.429-6.914 0-3.498-2.794-6.396-6.429-6.915z"/></g></g></g></g></svg>