<svg xmlns="http://www.w3.org/2000/svg" xmlns:xlink="http://www.w3.org/1999/xlink" width="20.324" height="20.15" viewBox="0 0 20.324 20.15">
  <defs>
    <clipPath id="clip-path">
      <rect id="Rectangle_1156" data-name="Rectangle 1156" width="20.324" height="20.15" fill="#707070"/>
    </clipPath>
  </defs>
  <g id="Group_580" data-name="Group 580" transform="translate(0 0)">
    <g id="Group_550" data-name="Group 550" transform="translate(0 0.001)" clip-path="url(#clip-path)">
      <path id="Path_2744" data-name="Path 2744" d="M17.261,4.13A4.512,4.512,0,0,0,12.719,0,4.612,4.612,0,0,0,8.156,4.563l0,9.021c-.011,2.267-.587,4.359-3.061,4.871-1.779.368-3.711-.668-5.092-2.047A17.071,17.071,0,0,0,4.872,20.1a7.122,7.122,0,0,0,5.9-1.949c4.406-4.042,4.7-13.091,9.314-13.393l.238-.008V4.13Zm-5.07,2.319a1.886,1.886,0,1,1,1.885-1.885,1.885,1.885,0,0,1-1.885,1.885" transform="translate(0 0)" fill="#707070" fill-rule="evenodd"/>
    </g>
  </g>
</svg>
