<svg id="Group_581" data-name="Group 581" xmlns="http://www.w3.org/2000/svg" xmlns:xlink="http://www.w3.org/1999/xlink" width="18.518" height="14.309" viewBox="0 0 18.518 14.309">
  <defs>
    <clipPath id="clip-path">
      <rect id="Rectangle_1148" data-name="Rectangle 1148" width="18.518" height="14.309" fill="#707070"/>
    </clipPath>
  </defs>
  <g id="Group_538" data-name="Group 538" clip-path="url(#clip-path)">
    <path id="Path_2729" data-name="Path 2729" d="M16.835.421A9.936,9.936,0,0,0,13.889,0a7.828,7.828,0,0,0-4.63,1.263A7.828,7.828,0,0,0,4.63,0,7.828,7.828,0,0,0,0,1.263V13.594a.453.453,0,0,0,.421.421c.084,0,.126-.042.21-.042a10.274,10.274,0,0,1,4-.926,7.828,7.828,0,0,1,4.63,1.263,10.139,10.139,0,0,1,4.63-1.263,8.567,8.567,0,0,1,4,.884.379.379,0,0,0,.21.042.453.453,0,0,0,.421-.421V1.263A5.741,5.741,0,0,0,16.835.421m0,11.363a9.781,9.781,0,0,0-2.946-.421,10.139,10.139,0,0,0-4.63,1.263V2.946a10.139,10.139,0,0,1,4.63-1.263,9.781,9.781,0,0,1,2.946.421Z" transform="translate(0 0)" fill="#707070"/>
  </g>
</svg>
