<svg xmlns="http://www.w3.org/2000/svg" xmlns:xlink="http://www.w3.org/1999/xlink" width="15" height="20" viewBox="0 0 15 20">
  <defs>
    <clipPath id="clip-path">
      <rect id="Rectangle_1162" data-name="Rectangle 1162" width="15" height="20" transform="translate(0 -0.248)" fill="#707070"/>
    </clipPath>
  </defs>
  <g id="Group_578" data-name="Group 578" transform="translate(0 0.248)">
    <g id="Group_562" data-name="Group 562" clip-path="url(#clip-path)">
      <path id="Path_2754" data-name="Path 2754" d="M7.119,0A3.115,3.115,0,0,0,4,3.119V9.356a3.119,3.119,0,0,0,6.238,0V3.119A3.115,3.115,0,0,0,7.119,0m1.04,9.356a1.029,1.029,0,0,1-1.04,1.04,1.043,1.043,0,0,1-1.04-1.04V3.119a1.04,1.04,0,1,1,2.079,0Z" transform="translate(0.158)" fill="#707070"/>
      <path id="Path_2755" data-name="Path 2755" d="M14.554,9H12.787a5.394,5.394,0,0,1-5.51,5.3A5.394,5.394,0,0,1,1.767,9H0a7.26,7.26,0,0,0,6.238,6.986V19.4H8.317v-3.41A7.26,7.26,0,0,0,14.554,9" transform="translate(0 0.356)" fill="#707070"/>
    </g>
  </g>
</svg>
