<svg id="Group_585" data-name="Group 585" xmlns="http://www.w3.org/2000/svg" xmlns:xlink="http://www.w3.org/1999/xlink" width="22" height="18.98" viewBox="0 0 22 18.98">
  <defs>
    <clipPath id="clip-path">
      <rect id="Rectangle_1158" data-name="Rectangle 1158" width="22" height="18.98" transform="translate(0 0)" fill="#707070"/>
    </clipPath>
  </defs>
  <g id="Group_554" data-name="Group 554" clip-path="url(#clip-path)">
    <path id="Path_2746" data-name="Path 2746" d="M21,6.98H16.21L11.83.42A.993.993,0,0,0,11,0a.977.977,0,0,0-.83.43L5.79,6.98H1a1,1,0,0,0-1,1,.842.842,0,0,0,.04.27l2.54,9.27A1.989,1.989,0,0,0,4.5,18.98h13a2.01,2.01,0,0,0,1.93-1.46l2.54-9.27L22,7.98a1,1,0,0,0-1-1M11,2.78l2.8,4.2H8.2Zm6.5,14.2-12.99.01L2.31,8.98H19.7Zm-6.5-6a2,2,0,1,0,2,2,2.006,2.006,0,0,0-2-2" fill="#707070"/>
  </g>
</svg>
