<svg id="Group_577" data-name="Group 577" xmlns="http://www.w3.org/2000/svg" xmlns:xlink="http://www.w3.org/1999/xlink" width="20.286" height="16.594" viewBox="0 0 20.286 16.594">
  <defs>
    <clipPath id="clip-path">
      <rect id="Rectangle_1147" data-name="Rectangle 1147" width="20.286" height="16.594" fill="#707070"/>
    </clipPath>
  </defs>
  <g id="Group_536" data-name="Group 536" clip-path="url(#clip-path)">
    <path id="Path_2728" data-name="Path 2728" d="M7.841,0V1.431A7.344,7.344,0,0,0,5.134.913,7.232,7.232,0,0,0,0,3.039L3.454,6.492H4.6V7.643A4.848,4.848,0,0,0,7.83,9.054v2.354h-3.1V14.52A2.08,2.08,0,0,0,6.8,16.594H17.175a3.107,3.107,0,0,0,3.111-3.111V0ZM6.689,6.648V4.418H4.325L3.246,3.339a5.258,5.258,0,0,1,1.888-.353A5.179,5.179,0,0,1,8.805,4.5l1.462,1.462-.207.207A2.8,2.8,0,0,1,8.069,7a2.871,2.871,0,0,1-1.379-.353m11.522,6.835a1.037,1.037,0,1,1-2.074,0V11.408H9.915V8.722a4.832,4.832,0,0,0,1.618-1.068l.207-.207,2.935,2.925h1.462V8.909L9.915,2.717V2.074h8.3Z" fill="#707070"/>
  </g>
</svg>
