<svg id="Group_582" data-name="Group 582" xmlns="http://www.w3.org/2000/svg" xmlns:xlink="http://www.w3.org/1999/xlink" width="18" height="20" viewBox="0 0 18 20">
  <defs>
    <clipPath id="clip-path">
      <rect id="Rectangle_1159" data-name="Rectangle 1159" width="18" height="20" fill="#707070"/>
    </clipPath>
  </defs>
  <g id="Group_556" data-name="Group 556" clip-path="url(#clip-path)">
    <path id="Path_2747" data-name="Path 2747" d="M16,2H15V0H13V2H5V0H3V2H2A2.006,2.006,0,0,0,0,4V18a2.006,2.006,0,0,0,2,2H16a2.006,2.006,0,0,0,2-2V4a2.006,2.006,0,0,0-2-2m0,16H2V8H16ZM2,4H16V6H2Zm2,6H14v2H4Zm0,4h7v2H4Z" fill="#707070"/>
  </g>
</svg>
